<mxfile host="app.diagrams.net" modified="2023-06-28T17:53:40.085Z" agent="Mozilla/5.0 (Windows NT 10.0; Win64; x64) AppleWebKit/537.36 (KHTML, like Gecko) Chrome/114.0.0.0 Safari/537.36 Edg/114.0.1823.58" etag="Vj3rmeuWHuBPY2bCmK8I" version="21.5.1" type="github">
  <diagram name="PÃ¡gina-1" id="Knh-bxP4cvF_kJY5RdvT">
    <mxGraphModel dx="1434" dy="796" grid="1" gridSize="10" guides="1" tooltips="1" connect="1" arrows="1" fold="1" page="1" pageScale="1" pageWidth="827" pageHeight="1169" math="0" shadow="0">
      <root>
        <mxCell id="0" />
        <mxCell id="1" parent="0" />
        <mxCell id="Bplkqm5n_Wd7AVl96ujl-1" value="CLIENTE" style="rounded=0;whiteSpace=wrap;html=1;fillColor=#f0a30a;fontColor=#000000;strokeColor=#BD7000;" parent="1" vertex="1">
          <mxGeometry x="160" y="130" width="120" height="60" as="geometry" />
        </mxCell>
        <mxCell id="Bplkqm5n_Wd7AVl96ujl-2" value="PRODUCTO" style="rounded=0;whiteSpace=wrap;html=1;fillColor=#f0a30a;fontColor=#000000;strokeColor=#BD7000;" parent="1" vertex="1">
          <mxGeometry x="540" y="280" width="120" height="60" as="geometry" />
        </mxCell>
        <mxCell id="Bplkqm5n_Wd7AVl96ujl-3" value="PROVEDOR" style="rounded=0;whiteSpace=wrap;html=1;fillColor=#f0a30a;fontColor=#000000;strokeColor=#BD7000;" parent="1" vertex="1">
          <mxGeometry x="530" y="630" width="120" height="60" as="geometry" />
        </mxCell>
        <mxCell id="Bplkqm5n_Wd7AVl96ujl-4" value="COMPRA" style="rhombus;whiteSpace=wrap;html=1;fillColor=#fa6800;fontColor=#000000;strokeColor=#C73500;" parent="1" vertex="1">
          <mxGeometry x="350" y="170" width="80" height="80" as="geometry" />
        </mxCell>
        <mxCell id="Bplkqm5n_Wd7AVl96ujl-5" value="SUMINISTRO" style="rhombus;whiteSpace=wrap;html=1;fillColor=#fa6800;fontColor=#000000;strokeColor=#C73500;" parent="1" vertex="1">
          <mxGeometry x="580" y="450" width="80" height="80" as="geometry" />
        </mxCell>
        <mxCell id="Bplkqm5n_Wd7AVl96ujl-6" value="NM" style="edgeStyle=entityRelationEdgeStyle;fontSize=12;html=1;endArrow=ERmany;startArrow=ERmany;rounded=0;" parent="1" source="Bplkqm5n_Wd7AVl96ujl-1" target="Bplkqm5n_Wd7AVl96ujl-4" edge="1">
          <mxGeometry width="100" height="100" relative="1" as="geometry">
            <mxPoint x="220" y="320" as="sourcePoint" />
            <mxPoint x="320" y="220" as="targetPoint" />
          </mxGeometry>
        </mxCell>
        <mxCell id="Bplkqm5n_Wd7AVl96ujl-7" value="" style="edgeStyle=entityRelationEdgeStyle;fontSize=12;html=1;endArrow=ERmandOne;startArrow=ERmandOne;rounded=0;fillColor=#a20025;strokeColor=#6F0000;" parent="1" source="Bplkqm5n_Wd7AVl96ujl-5" target="Bplkqm5n_Wd7AVl96ujl-2" edge="1">
          <mxGeometry width="100" height="100" relative="1" as="geometry">
            <mxPoint x="650" y="490" as="sourcePoint" />
            <mxPoint x="650" y="310" as="targetPoint" />
          </mxGeometry>
        </mxCell>
        <mxCell id="Bplkqm5n_Wd7AVl96ujl-12" value="" style="edgeStyle=entityRelationEdgeStyle;fontSize=12;html=1;endArrow=ERoneToMany;rounded=0;" parent="1" source="Bplkqm5n_Wd7AVl96ujl-3" target="Bplkqm5n_Wd7AVl96ujl-5" edge="1">
          <mxGeometry width="100" height="100" relative="1" as="geometry">
            <mxPoint x="380" y="710" as="sourcePoint" />
            <mxPoint x="480" y="610" as="targetPoint" />
          </mxGeometry>
        </mxCell>
        <mxCell id="Bplkqm5n_Wd7AVl96ujl-13" value="CODIGO" style="ellipse;whiteSpace=wrap;html=1;align=center;fontStyle=4;" parent="1" vertex="1">
          <mxGeometry x="720" y="250" width="100" height="40" as="geometry" />
        </mxCell>
        <mxCell id="Bplkqm5n_Wd7AVl96ujl-14" value="RFC_CLIENTE" style="ellipse;whiteSpace=wrap;html=1;align=center;fontStyle=4;" parent="1" vertex="1">
          <mxGeometry y="40" width="100" height="40" as="geometry" />
        </mxCell>
        <mxCell id="Bplkqm5n_Wd7AVl96ujl-15" value="RFC_PROVEDOR" style="ellipse;whiteSpace=wrap;html=1;align=center;fontStyle=4;" parent="1" vertex="1">
          <mxGeometry x="710" y="590" width="100" height="40" as="geometry" />
        </mxCell>
        <mxCell id="Bplkqm5n_Wd7AVl96ujl-16" value="" style="edgeStyle=entityRelationEdgeStyle;fontSize=12;html=1;endArrow=ERoneToMany;rounded=0;" parent="1" source="Bplkqm5n_Wd7AVl96ujl-2" target="Bplkqm5n_Wd7AVl96ujl-4" edge="1">
          <mxGeometry width="100" height="100" relative="1" as="geometry">
            <mxPoint x="430" y="570" as="sourcePoint" />
            <mxPoint x="530" y="470" as="targetPoint" />
          </mxGeometry>
        </mxCell>
        <mxCell id="Bplkqm5n_Wd7AVl96ujl-17" value="RFC_CLIENTE" style="ellipse;whiteSpace=wrap;html=1;align=center;dashed=1;" parent="1" vertex="1">
          <mxGeometry x="314" y="340" width="100" height="40" as="geometry" />
        </mxCell>
        <mxCell id="Bplkqm5n_Wd7AVl96ujl-18" value="CODIGO" style="ellipse;whiteSpace=wrap;html=1;align=center;dashed=1;" parent="1" vertex="1">
          <mxGeometry x="314" y="400" width="100" height="40" as="geometry" />
        </mxCell>
        <mxCell id="Bplkqm5n_Wd7AVl96ujl-19" value="" style="edgeStyle=entityRelationEdgeStyle;fontSize=12;html=1;endArrow=ERmandOne;startArrow=ERmandOne;rounded=0;entryX=0.5;entryY=1;entryDx=0;entryDy=0;" parent="1" source="Bplkqm5n_Wd7AVl96ujl-17" target="Bplkqm5n_Wd7AVl96ujl-4" edge="1">
          <mxGeometry width="100" height="100" relative="1" as="geometry">
            <mxPoint x="260" y="390" as="sourcePoint" />
            <mxPoint x="360" y="290" as="targetPoint" />
          </mxGeometry>
        </mxCell>
        <mxCell id="Bplkqm5n_Wd7AVl96ujl-20" value="" style="edgeStyle=entityRelationEdgeStyle;fontSize=12;html=1;endArrow=ERmandOne;startArrow=ERmandOne;rounded=0;entryX=0.5;entryY=1;entryDx=0;entryDy=0;" parent="1" source="Bplkqm5n_Wd7AVl96ujl-18" target="Bplkqm5n_Wd7AVl96ujl-4" edge="1">
          <mxGeometry width="100" height="100" relative="1" as="geometry">
            <mxPoint x="310" y="380" as="sourcePoint" />
            <mxPoint x="330" y="290" as="targetPoint" />
          </mxGeometry>
        </mxCell>
        <mxCell id="Bplkqm5n_Wd7AVl96ujl-21" value="NOMBRE" style="ellipse;whiteSpace=wrap;html=1;align=center;" parent="1" vertex="1">
          <mxGeometry y="160" width="100" height="40" as="geometry" />
        </mxCell>
        <mxCell id="Bplkqm5n_Wd7AVl96ujl-22" value="NOMBRE" style="ellipse;whiteSpace=wrap;html=1;align=center;" parent="1" vertex="1">
          <mxGeometry x="720" y="310" width="100" height="40" as="geometry" />
        </mxCell>
        <mxCell id="Bplkqm5n_Wd7AVl96ujl-23" value="APELLIDOS" style="ellipse;whiteSpace=wrap;html=1;align=center;" parent="1" vertex="1">
          <mxGeometry y="230" width="100" height="40" as="geometry" />
        </mxCell>
        <mxCell id="Bplkqm5n_Wd7AVl96ujl-24" value="DIRECCION" style="ellipse;whiteSpace=wrap;html=1;align=center;" parent="1" vertex="1">
          <mxGeometry y="300" width="100" height="40" as="geometry" />
        </mxCell>
        <mxCell id="Bplkqm5n_Wd7AVl96ujl-26" value="PRECIO_UNITARIO" style="ellipse;whiteSpace=wrap;html=1;align=center;" parent="1" vertex="1">
          <mxGeometry x="720" y="370" width="100" height="40" as="geometry" />
        </mxCell>
        <mxCell id="Bplkqm5n_Wd7AVl96ujl-27" value="FECHA DE NACIMIENTO" style="ellipse;shape=doubleEllipse;margin=3;whiteSpace=wrap;html=1;align=center;" parent="1" vertex="1">
          <mxGeometry y="370" width="100" height="40" as="geometry" />
        </mxCell>
        <mxCell id="Bplkqm5n_Wd7AVl96ujl-28" value="" style="edgeStyle=entityRelationEdgeStyle;fontSize=12;html=1;endArrow=ERmandOne;startArrow=ERmandOne;rounded=0;" parent="1" source="Bplkqm5n_Wd7AVl96ujl-1" target="Bplkqm5n_Wd7AVl96ujl-14" edge="1">
          <mxGeometry width="100" height="100" relative="1" as="geometry">
            <mxPoint x="350" y="360" as="sourcePoint" />
            <mxPoint x="460" y="280" as="targetPoint" />
          </mxGeometry>
        </mxCell>
        <mxCell id="Bplkqm5n_Wd7AVl96ujl-29" value="" style="edgeStyle=entityRelationEdgeStyle;fontSize=12;html=1;endArrow=ERmandOne;startArrow=ERmandOne;rounded=0;" parent="1" source="Bplkqm5n_Wd7AVl96ujl-1" target="Bplkqm5n_Wd7AVl96ujl-23" edge="1">
          <mxGeometry width="100" height="100" relative="1" as="geometry">
            <mxPoint x="190" y="140" as="sourcePoint" />
            <mxPoint x="110" y="70" as="targetPoint" />
          </mxGeometry>
        </mxCell>
        <mxCell id="Bplkqm5n_Wd7AVl96ujl-30" value="" style="edgeStyle=entityRelationEdgeStyle;fontSize=12;html=1;endArrow=ERmandOne;startArrow=ERmandOne;rounded=0;" parent="1" source="Bplkqm5n_Wd7AVl96ujl-1" target="Bplkqm5n_Wd7AVl96ujl-24" edge="1">
          <mxGeometry width="100" height="100" relative="1" as="geometry">
            <mxPoint x="200" y="150" as="sourcePoint" />
            <mxPoint x="120" y="80" as="targetPoint" />
          </mxGeometry>
        </mxCell>
        <mxCell id="Bplkqm5n_Wd7AVl96ujl-31" value="" style="edgeStyle=entityRelationEdgeStyle;fontSize=12;html=1;endArrow=ERmandOne;startArrow=ERmandOne;rounded=0;" parent="1" source="Bplkqm5n_Wd7AVl96ujl-1" target="Bplkqm5n_Wd7AVl96ujl-21" edge="1">
          <mxGeometry width="100" height="100" relative="1" as="geometry">
            <mxPoint x="210" y="160" as="sourcePoint" />
            <mxPoint x="130" y="90" as="targetPoint" />
          </mxGeometry>
        </mxCell>
        <mxCell id="Bplkqm5n_Wd7AVl96ujl-32" value="" style="edgeStyle=entityRelationEdgeStyle;fontSize=12;html=1;endArrow=ERmandOne;startArrow=ERmandOne;rounded=0;" parent="1" source="Bplkqm5n_Wd7AVl96ujl-1" target="Bplkqm5n_Wd7AVl96ujl-27" edge="1">
          <mxGeometry width="100" height="100" relative="1" as="geometry">
            <mxPoint x="190" y="260" as="sourcePoint" />
            <mxPoint x="140" y="100" as="targetPoint" />
          </mxGeometry>
        </mxCell>
        <mxCell id="Bplkqm5n_Wd7AVl96ujl-33" value="" style="edgeStyle=entityRelationEdgeStyle;fontSize=12;html=1;endArrow=ERmandOne;startArrow=ERmandOne;rounded=0;" parent="1" source="Bplkqm5n_Wd7AVl96ujl-13" target="Bplkqm5n_Wd7AVl96ujl-2" edge="1">
          <mxGeometry width="100" height="100" relative="1" as="geometry">
            <mxPoint x="223" y="212" as="sourcePoint" />
            <mxPoint x="163" y="232" as="targetPoint" />
          </mxGeometry>
        </mxCell>
        <mxCell id="Bplkqm5n_Wd7AVl96ujl-34" value="" style="edgeStyle=entityRelationEdgeStyle;fontSize=12;html=1;endArrow=ERmandOne;startArrow=ERmandOne;rounded=0;" parent="1" source="Bplkqm5n_Wd7AVl96ujl-22" target="Bplkqm5n_Wd7AVl96ujl-2" edge="1">
          <mxGeometry width="100" height="100" relative="1" as="geometry">
            <mxPoint x="730" y="280" as="sourcePoint" />
            <mxPoint x="650" y="320" as="targetPoint" />
          </mxGeometry>
        </mxCell>
        <mxCell id="Bplkqm5n_Wd7AVl96ujl-35" value="" style="edgeStyle=entityRelationEdgeStyle;fontSize=12;html=1;endArrow=ERmandOne;startArrow=ERmandOne;rounded=0;" parent="1" source="Bplkqm5n_Wd7AVl96ujl-26" target="Bplkqm5n_Wd7AVl96ujl-2" edge="1">
          <mxGeometry width="100" height="100" relative="1" as="geometry">
            <mxPoint x="740" y="290" as="sourcePoint" />
            <mxPoint x="660" y="330" as="targetPoint" />
          </mxGeometry>
        </mxCell>
        <mxCell id="Bplkqm5n_Wd7AVl96ujl-36" style="edgeStyle=orthogonalEdgeStyle;rounded=0;orthogonalLoop=1;jettySize=auto;html=1;exitX=0.75;exitY=1;exitDx=0;exitDy=0;entryX=1;entryY=0.75;entryDx=0;entryDy=0;" parent="1" source="Bplkqm5n_Wd7AVl96ujl-2" target="Bplkqm5n_Wd7AVl96ujl-2" edge="1">
          <mxGeometry relative="1" as="geometry" />
        </mxCell>
        <mxCell id="Bplkqm5n_Wd7AVl96ujl-37" value="" style="edgeStyle=entityRelationEdgeStyle;fontSize=12;html=1;endArrow=ERmandOne;startArrow=ERmandOne;rounded=0;" parent="1" source="Bplkqm5n_Wd7AVl96ujl-15" target="Bplkqm5n_Wd7AVl96ujl-3" edge="1">
          <mxGeometry width="100" height="100" relative="1" as="geometry">
            <mxPoint x="730" y="430" as="sourcePoint" />
            <mxPoint x="670" y="410" as="targetPoint" />
          </mxGeometry>
        </mxCell>
        <mxCell id="Bplkqm5n_Wd7AVl96ujl-38" value="NOMBRE" style="ellipse;whiteSpace=wrap;html=1;align=center;fontStyle=4;" parent="1" vertex="1">
          <mxGeometry x="710" y="640" width="100" height="40" as="geometry" />
        </mxCell>
        <mxCell id="Bplkqm5n_Wd7AVl96ujl-39" value="DIRECCION" style="ellipse;whiteSpace=wrap;html=1;align=center;fontStyle=4;" parent="1" vertex="1">
          <mxGeometry x="710" y="690" width="100" height="40" as="geometry" />
        </mxCell>
        <mxCell id="Bplkqm5n_Wd7AVl96ujl-40" value="" style="edgeStyle=entityRelationEdgeStyle;fontSize=12;html=1;endArrow=ERmandOne;startArrow=ERmandOne;rounded=0;" parent="1" source="Bplkqm5n_Wd7AVl96ujl-38" target="Bplkqm5n_Wd7AVl96ujl-3" edge="1">
          <mxGeometry width="100" height="100" relative="1" as="geometry">
            <mxPoint x="720" y="620" as="sourcePoint" />
            <mxPoint x="650" y="650" as="targetPoint" />
          </mxGeometry>
        </mxCell>
        <mxCell id="Bplkqm5n_Wd7AVl96ujl-41" value="" style="edgeStyle=entityRelationEdgeStyle;fontSize=12;html=1;endArrow=ERmandOne;startArrow=ERmandOne;rounded=0;" parent="1" source="Bplkqm5n_Wd7AVl96ujl-39" target="Bplkqm5n_Wd7AVl96ujl-3" edge="1">
          <mxGeometry width="100" height="100" relative="1" as="geometry">
            <mxPoint x="730" y="630" as="sourcePoint" />
            <mxPoint x="660" y="660" as="targetPoint" />
          </mxGeometry>
        </mxCell>
      </root>
    </mxGraphModel>
  </diagram>
</mxfile>
